<svg id="Capa_1" enable-background="new 0 0 512 512" height="512" viewBox="0 0 512 512" width="512" xmlns="http://www.w3.org/2000/svg"><g><path d="m411 307.096v-220.096c0-8.284-6.716-15-15-15h-73v-17c0-8.284-6.716-15-15-15h-49.52c-3.391-22.606-22.943-40-46.48-40s-43.089 17.394-46.48 40h-49.52c-8.284 0-15 6.716-15 15v17h-73c-8.284 0-15 6.716-15 15v410c0 8.284 6.716 15 15 15h368c56.794 0 103-46.206 103-103 0-51.7-38.29-94.62-88-101.904zm-280-237.096h49c8.284 0 15-6.716 15-15v-8c0-9.374 7.626-17 17-17s17 7.626 17 17v8c0 8.284 6.716 15 15 15h49v34h-162zm-88 412v-380h58v17c0 8.284 6.716 15 15 15h192c8.284 0 15-6.716 15-15v-17h58v205.096c-36.078 5.287-66.14 29.342-79.915 61.904h-65.085c-8.284 0-15 6.716-15 15s6.716 15 15 15h57.487c-.319 3.292-.487 6.626-.487 10 0 28.501 11.638 54.333 30.409 73zm353 0c-40.252 0-73-32.748-73-73s32.748-73 73-73 73 32.748 73 73-32.748 73-73 73z"/><path d="m156 193h-64c-8.284 0-15 6.716-15 15v64c0 8.284 6.716 15 15 15h64c8.284 0 15-6.716 15-15v-64c0-8.284-6.716-15-15-15zm-15 64h-34v-34h34z"/><path d="m409.077 387.72-21.403 22.741-5.067-5.067c-5.857-5.857-15.355-5.857-21.213 0s-5.858 15.355 0 21.213l16 16c2.814 2.815 6.63 4.393 10.606 4.393.076 0 .152-.001.228-.002 4.057-.062 7.916-1.764 10.696-4.718l32-34c5.678-6.032 5.39-15.525-.643-21.203-6.033-5.679-15.527-5.389-21.204.643z"/><path d="m236 255h95c8.284 0 15-6.716 15-15s-6.716-15-15-15h-95c-8.284 0-15 6.716-15 15s6.716 15 15 15z"/><path d="m156 337h-64c-8.284 0-15 6.716-15 15v64c0 8.284 6.716 15 15 15h64c8.284 0 15-6.716 15-15v-64c0-8.284-6.716-15-15-15zm-15 64h-34v-34h34z"/></g></svg>